<svg xmlns="http://www.w3.org/2000/svg" width="1200" height="630" viewBox="0 0 1200 630">
  <defs>
    <linearGradient id="bg" x1="0" y1="0" x2="1" y2="1">
      <stop offset="0" stop-color="#0a0a14"/>
      <stop offset="1" stop-color="#07070c"/>
    </linearGradient>
    <linearGradient id="grad" x1="0" y1="0" x2="1" y2="0">
      <stop offset="0" stop-color="#a78bfa"/>
      <stop offset="0.5" stop-color="#7c5cff"/>
      <stop offset="1" stop-color="#22d3ee"/>
    </linearGradient>
    <radialGradient id="glow1" cx="0.5" cy="0.5" r="0.5">
      <stop offset="0" stop-color="#7c5cff" stop-opacity="0.55"/>
      <stop offset="1" stop-color="#7c5cff" stop-opacity="0"/>
    </radialGradient>
    <radialGradient id="glow2" cx="0.5" cy="0.5" r="0.5">
      <stop offset="0" stop-color="#22d3ee" stop-opacity="0.4"/>
      <stop offset="1" stop-color="#22d3ee" stop-opacity="0"/>
    </radialGradient>
  </defs>

  <rect width="1200" height="630" fill="url(#bg)"/>
  <circle cx="980" cy="160" r="320" fill="url(#glow1)"/>
  <circle cx="1080" cy="520" r="280" fill="url(#glow2)"/>

  <!-- wireframe motif -->
  <g stroke="#8b5cf6" stroke-opacity="0.5" stroke-width="1.5" fill="none" transform="translate(940 315)">
    <polygon points="0,-150 130,-75 130,75 0,150 -130,75 -130,-75"/>
    <polygon points="0,-90 78,-45 78,45 0,90 -78,45 -78,-45"/>
    <line x1="0" y1="-150" x2="0" y2="150"/>
    <line x1="-130" y1="-75" x2="130" y2="75"/>
    <line x1="-130" y1="75" x2="130" y2="-75"/>
  </g>

  <text x="90" y="250" font-family="Arial, sans-serif" font-size="34" font-weight="700" fill="#a78bfa" letter-spacing="3">AHSON MAHMOOD</text>
  <text x="86" y="360" font-family="Arial, sans-serif" font-size="92" font-weight="800" fill="#ffffff">Odoo Developer</text>
  <text x="86" y="450" font-family="Arial, sans-serif" font-size="92" font-weight="800" fill="url(#grad)">&amp; Apps Author</text>
  <text x="90" y="520" font-family="Arial, sans-serif" font-size="30" fill="#94a3b8">Custom modules · eCommerce · Accounting · Support (v13–v19)</text>
</svg>
